<svg width="26" height="26" viewBox="0 0 26 26" fill="none" xmlns="http://www.w3.org/2000/svg">
<path d="M13.0015 0.500001C5.81812 0.497132 0 6.24076 0 13.3299C0 18.9359 3.63959 23.7012 8.7083 25.4512C9.39091 25.6205 9.28634 25.1414 9.28634 24.8143V22.5909C5.34465 23.0471 5.1849 20.4707 4.92057 20.0404C4.3861 19.1395 3.12256 18.91 3.50017 18.4797C4.39772 18.0235 5.3127 18.5944 6.37292 20.1408C7.13976 21.2626 8.63568 21.0732 9.39381 20.8867C9.55938 20.2125 9.91375 19.6101 10.4017 19.1424C6.31773 18.4194 4.61557 15.9579 4.61557 13.0316C4.61557 11.6114 5.08904 10.3061 6.01855 9.25316C5.42599 7.51744 6.07374 6.03133 6.16088 5.81042C7.84851 5.66124 9.60295 7.0039 9.73947 7.11005C10.698 6.85472 11.7931 6.71988 13.0189 6.71988C14.2505 6.71988 15.3485 6.86046 16.3157 7.11866C16.644 6.87193 18.2706 5.71861 19.8391 5.85919C19.9234 6.0801 20.5566 7.53179 19.9989 9.24455C20.94 10.3003 21.4193 11.6172 21.4193 13.0402C21.4193 15.9722 19.7055 18.4367 15.6099 19.1482C15.9607 19.4889 16.2392 19.8953 16.4292 20.3435C16.6193 20.7918 16.7169 21.2729 16.7166 21.7589V24.9865C16.7398 25.2447 16.7166 25.5 17.1523 25.5C22.2965 23.7872 26 18.9875 26 13.3328C26 6.24076 20.179 0.500001 13.0015 0.500001V0.500001Z" fill="black"/>
</svg>
