<svg width="21" height="24" viewBox="0 0 21 24" fill="none" xmlns="http://www.w3.org/2000/svg">
<path d="M17.7209 21.8632V15.4612H19.93V24H0V15.4612H2.20134V21.8632H17.7209ZM4.40967 19.7302H15.5164V17.5942H4.40967V19.7302ZM4.68105 14.8793L15.5172 17.0662L15.9816 14.9963L5.15017 12.8123L4.68105 14.8793ZM6.08607 9.82425L16.1189 14.352L17.0517 12.402L7.02042 7.87125L6.08684 9.80925L6.08607 9.82425ZM8.893 5.03925L17.3859 11.895L18.7917 10.2727L10.2988 3.4215L8.90075 5.03475L8.893 5.03925ZM14.3774 0L12.5722 1.293L19.1949 9.89775L21 8.60475L14.3774 0Z" fill="black"/>
</svg>
