<svg width="25" height="24" viewBox="0 0 25 24" fill="none" xmlns="http://www.w3.org/2000/svg">
<path d="M12.8735 0C6.24149 0 0.875491 5.367 0.875491 12C0.874439 13.5762 1.18411 15.1371 1.78679 16.5934C2.38948 18.0498 3.27335 19.3731 4.38786 20.4876C5.50238 21.6021 6.82566 22.486 8.28205 23.0887C9.73843 23.6914 11.2993 24.0011 12.8755 24C19.5085 24 24.8755 18.633 24.8755 12C24.8745 5.367 19.4635 0 12.8735 0ZM7.24549 14.575C7.63749 15.098 8.16149 15.317 8.90249 15.317C9.25249 15.317 9.60149 15.273 9.90649 15.142C10.2125 15.012 10.5615 14.836 10.9965 14.575L12.2195 16.32C11.2165 17.15 10.0815 17.542 8.77249 17.542C7.72449 17.542 6.85249 17.324 6.06749 16.888C5.30542 16.4384 4.69686 15.7692 4.32149 14.968C3.92949 14.138 3.71049 13.178 3.71049 12.043C3.71049 10.953 3.92949 9.949 4.32049 9.12C4.69382 8.29411 5.30168 7.59619 6.06849 7.113C6.80949 6.633 7.72549 6.415 8.72949 6.415C9.42849 6.415 10.0825 6.502 10.6065 6.72C11.1944 6.94755 11.7399 7.27205 12.2205 7.68L10.9985 9.338C10.6883 9.10895 10.3515 8.91823 9.99549 8.77C9.69049 8.64 9.29749 8.596 8.94749 8.596C7.46449 8.596 6.72249 9.73 6.72249 12.042C6.67949 13.222 6.89749 14.05 7.24649 14.574H7.24549V14.575ZM19.2455 17.28C18.8095 18.633 18.1545 19.637 17.2375 20.378C16.3215 21.121 15.0995 21.513 13.5725 21.644L13.2675 19.594C14.2705 19.462 15.0125 19.244 15.4925 18.894C15.6665 18.764 16.0165 18.371 16.0165 18.371L12.3945 6.764H15.4045L17.4995 15.447L19.7255 6.764H22.6485L19.2455 17.28Z" fill="black"/>
</svg>
