<svg width="25" height="24" viewBox="0 0 25 24" fill="none" xmlns="http://www.w3.org/2000/svg">
<g clip-path="url(#clip0)">
<path d="M5.94531 5.5C5.94531 4.57174 6.31406 3.6815 6.97044 3.02513C7.62682 2.36875 8.51705 2 9.44531 2H12.9453V9H9.44531C8.51705 9 7.62682 8.63125 6.97044 7.97487C6.31406 7.3185 5.94531 6.42826 5.94531 5.5Z" stroke="black" stroke-width="2.5" stroke-linecap="round" stroke-linejoin="round"/>
<path d="M12.9453 2H16.4453C16.9049 2 17.3601 2.09053 17.7847 2.26642C18.2093 2.44231 18.5952 2.70012 18.9202 3.02513C19.2452 3.35013 19.503 3.73597 19.6789 4.16061C19.8548 4.58525 19.9453 5.04037 19.9453 5.5C19.9453 5.95963 19.8548 6.41475 19.6789 6.83939C19.503 7.26403 19.2452 7.64987 18.9202 7.97487C18.5952 8.29988 18.2093 8.55769 17.7847 8.73358C17.3601 8.90947 16.9049 9 16.4453 9H12.9453V2Z" stroke="black" stroke-width="2.5" stroke-linecap="round" stroke-linejoin="round"/>
<path d="M12.9453 12.5C12.9453 12.0404 13.0358 11.5852 13.2117 11.1606C13.3876 10.736 13.6454 10.3501 13.9704 10.0251C14.2954 9.70012 14.6813 9.44231 15.1059 9.26642C15.5306 9.09053 15.9857 9 16.4453 9C16.9049 9 17.3601 9.09053 17.7847 9.26642C18.2093 9.44231 18.5952 9.70012 18.9202 10.0251C19.2452 10.3501 19.503 10.736 19.6789 11.1606C19.8548 11.5852 19.9453 12.0404 19.9453 12.5C19.9453 12.9596 19.8548 13.4148 19.6789 13.8394C19.503 14.264 19.2452 14.6499 18.9202 14.9749C18.5952 15.2999 18.2093 15.5577 17.7847 15.7336C17.3601 15.9095 16.9049 16 16.4453 16C15.9857 16 15.5306 15.9095 15.1059 15.7336C14.6813 15.5577 14.2954 15.2999 13.9704 14.9749C13.6454 14.6499 13.3876 14.264 13.2117 13.8394C13.0358 13.4148 12.9453 12.9596 12.9453 12.5V12.5Z" stroke="black" stroke-width="2.5" stroke-linecap="round" stroke-linejoin="round"/>
<path d="M5.94531 19.5C5.94531 18.5717 6.31406 17.6815 6.97044 17.0251C7.62682 16.3687 8.51705 16 9.44531 16H12.9453V19.5C12.9453 20.4283 12.5766 21.3185 11.9202 21.9749C11.2638 22.6313 10.3736 23 9.44531 23C8.51705 23 7.62682 22.6313 6.97044 21.9749C6.31406 21.3185 5.94531 20.4283 5.94531 19.5Z" stroke="black" stroke-width="2.5" stroke-linecap="round" stroke-linejoin="round"/>
<path d="M5.94531 12.5C5.94531 11.5717 6.31406 10.6815 6.97044 10.0251C7.62682 9.36875 8.51705 9 9.44531 9H12.9453V16H9.44531C8.51705 16 7.62682 15.6313 6.97044 14.9749C6.31406 14.3185 5.94531 13.4283 5.94531 12.5Z" stroke="black" stroke-width="2.5" stroke-linecap="round" stroke-linejoin="round"/>
</g>
<defs>
<clipPath id="clip0">
<rect width="24" height="24" fill="white" transform="translate(0.945312)"/>
</clipPath>
</defs>
</svg>
