<svg width="25" height="24" viewBox="0 0 25 24" fill="none" xmlns="http://www.w3.org/2000/svg">
<path d="M12.9453 0C6.32431 0 0.945312 5.379 0.945312 12C0.945312 18.621 6.32431 24 12.9453 24C19.5663 24 24.9453 18.621 24.9453 12C24.9453 5.379 19.5663 0 12.9453 0ZM12.9453 0.75C15.8163 0.75 18.4256 1.83225 20.4138 3.6015H5.47606C7.52934 1.76351 10.1896 0.748114 12.9453 0.75ZM5.75806 4.3515H20.1333L12.9461 18.7222L5.75806 4.3515ZM4.54681 4.5315V19.4693C2.70882 17.416 1.69343 14.7565 1.69531 12.0007C1.69531 9.12975 2.77756 6.51975 4.54681 4.5315ZM21.3438 4.5315C23.1818 6.58478 24.1972 9.24425 24.1953 12C24.1953 14.871 23.1131 17.4802 21.3438 19.4685V4.5315ZM5.29681 5.1015L12.5703 19.6485H5.29681V5.1015ZM20.5938 5.1015V19.6485H13.3203L20.5976 5.1015H20.5938ZM5.47681 20.3985H20.4146C18.3596 22.2383 15.7001 23.25 12.9461 23.25C10.1921 23.25 7.53106 22.2383 5.47681 20.3985Z" fill="black"/>
</svg>
