<svg width="23" height="24" viewBox="0 0 23 24" fill="none" xmlns="http://www.w3.org/2000/svg">
<path d="M11.6913 24C9.68732 24 7.89932 22.2 6.77133 19.116C6.68733 18.876 6.80732 18.6 7.05932 18.528C7.29932 18.432 7.56332 18.564 7.64732 18.804C8.61932 21.48 10.1313 23.076 11.6913 23.076C12.8193 23.076 13.9353 22.26 14.8353 20.772C14.9005 20.6703 15.0029 20.5981 15.1206 20.5708C15.2383 20.5435 15.362 20.5633 15.4653 20.6259C15.5686 20.6885 15.6434 20.7891 15.6737 20.906C15.7039 21.023 15.6873 21.1471 15.6273 21.252C14.5473 23.028 13.1553 24 11.6913 24ZM16.3833 18.864C16.3383 18.8629 16.2938 18.8548 16.2513 18.84C15.9993 18.756 15.8913 18.504 15.9393 18.252C16.4913 16.572 16.7553 14.616 16.7553 12.6C16.7553 7.98 15.2553 3.888 13.1193 2.568C12.8193 3 12.2913 3.336 11.6913 3.336C10.7793 3.336 10.0233 2.592 10.0233 1.668C10.0233 0.744 10.7793 0 11.6913 0C12.6153 0 13.3713 0.732 13.3833 1.644C15.9273 3 17.6913 7.452 17.6913 12.6C17.6913 14.7 17.3913 16.752 16.8273 18.54C16.7673 18.732 16.5873 18.864 16.3833 18.864ZM11.6913 0.924C11.2833 0.924 10.9473 1.26 10.9473 1.668C10.9473 2.076 11.2953 2.4 11.6913 2.4C12.1113 2.4 12.4593 2.076 12.4593 1.668C12.4593 1.26 12.1113 0.924 11.6913 0.924ZM2.18732 19.848C1.26332 19.848 0.507324 19.092 0.507324 18.18C0.507324 17.592 0.819324 17.064 1.28732 16.764C1.11932 13.872 4.10732 10.092 8.69132 7.464C10.5993 6.384 12.5913 5.604 14.4753 5.208C14.6913 5.148 14.9673 5.304 15.0153 5.556C15.0753 5.808 14.9193 6.06 14.6913 6.108C12.8913 6.492 10.9833 7.236 9.17132 8.268C5.04332 10.632 2.21132 14.016 2.21132 16.512C3.12332 16.524 3.89132 17.268 3.89132 18.18C3.89132 19.104 3.11132 19.848 2.18732 19.848ZM2.18732 17.436C1.77932 17.436 1.44332 17.772 1.44332 18.18C1.44332 18.6 1.77932 18.924 2.18732 18.924C2.59532 18.924 2.94332 18.6 2.94332 18.18C2.94332 17.772 2.59532 17.436 2.18732 17.436ZM19.4913 13.728C19.4073 13.728 19.2993 13.692 19.2153 13.62C19.1223 13.5383 19.0651 13.4233 19.0561 13.2998C19.0472 13.1764 19.0871 13.0543 19.1673 12.96C21.0153 10.8 21.6513 8.712 20.8593 7.368C20.2953 6.396 19.0113 5.856 17.2473 5.832C16.9833 5.832 16.7793 5.616 16.7913 5.364C16.7913 5.112 17.0073 4.92 17.2593 4.908C19.3593 4.932 20.9313 5.64 21.6633 6.9C22.6713 8.628 22.0113 11.052 19.8753 13.56C19.7793 13.668 19.6473 13.728 19.4913 13.728ZM17.0913 20.28C14.6913 20.28 11.6193 19.392 8.69132 17.724C6.83132 16.656 5.17532 15.348 3.89132 13.956C3.80746 13.8666 3.76079 13.7486 3.76079 13.626C3.76079 13.5034 3.80746 13.3854 3.89132 13.296C4.10732 13.128 4.39532 13.14 4.57532 13.332C5.78732 14.652 7.37132 15.9 9.15932 16.92C13.1313 19.2 17.4153 19.956 19.6713 18.864C19.5753 18.66 19.4913 18.42 19.4913 18.18C19.4913 17.256 20.2713 16.512 21.1953 16.512C22.1193 16.512 22.8753 17.256 22.8753 18.18C22.8743 18.4802 22.7926 18.7747 22.6387 19.0325C22.4849 19.2903 22.2646 19.5021 22.0009 19.6456C21.7372 19.7891 21.4397 19.8591 21.1397 19.8483C20.8396 19.8374 20.548 19.7462 20.2953 19.584C19.4553 20.052 18.3633 20.28 17.0913 20.28ZM20.6913 18.756C20.8473 18.852 21.0153 18.924 21.1953 18.924C21.3926 18.924 21.5819 18.8456 21.7214 18.7061C21.8609 18.5666 21.9393 18.3773 21.9393 18.18C21.9393 17.9827 21.8609 17.7934 21.7214 17.6539C21.5819 17.5144 21.3926 17.436 21.1953 17.436C20.7753 17.436 20.4513 17.772 20.4513 18.18C20.4513 18.348 20.5113 18.504 20.6073 18.636C20.6553 18.66 20.6913 18.708 20.6913 18.756ZM2.64332 12C2.48732 12 2.33132 11.904 2.24732 11.76C1.16732 9.9 0.987324 8.172 1.73132 6.888C2.73932 5.16 5.18733 4.512 8.46333 5.1C8.69133 5.148 8.88332 5.4 8.83532 5.64C8.79932 5.892 8.55932 6.06 8.30732 6C5.47532 5.508 3.29132 6 2.53532 7.356C1.95932 8.34 2.13932 9.732 3.05132 11.292C3.17132 11.52 3.09932 11.796 2.87132 11.928C2.79932 11.964 2.72732 12 2.64332 12ZM11.9433 13.68C11.6569 13.7437 11.3569 13.6909 11.1094 13.5334C10.8618 13.3758 10.687 13.1264 10.6233 12.84C10.5597 12.5536 10.6124 12.2536 10.7699 12.006C10.9275 11.7585 11.1769 11.5837 11.4633 11.52C12.0633 11.4 12.6633 11.772 12.7833 12.372C12.8913 12.96 12.5313 13.548 11.9433 13.68Z" fill="black"/>
</svg>
