<svg width="25" height="24" viewBox="0 0 25 24" fill="none" xmlns="http://www.w3.org/2000/svg">
<g clip-path="url(#clip0)">
<path d="M0.875488 12V24H24.8755V0H0.875488V12ZM20.215 11.043C20.7903 11.1785 21.3132 11.4799 21.7187 11.91C21.9377 12.144 22.2655 12.5738 22.2932 12.6795C22.3007 12.711 21.2582 13.41 20.6252 13.8007C20.602 13.8165 20.5082 13.719 20.4062 13.566C20.098 13.1167 19.7732 12.9217 19.2775 12.8865C18.5507 12.8392 18.082 13.2188 18.0857 13.8555C18.0819 14.0113 18.1167 14.1656 18.187 14.3048C18.3475 14.637 18.6482 14.8358 19.5775 15.2385C21.2965 15.9765 22.0307 16.4648 22.4875 17.1562C22.999 17.9295 23.1122 19.164 22.7687 20.0858C22.3862 21.0818 21.4405 21.7612 20.1122 21.984C19.702 22.0583 18.7255 22.0462 18.2837 21.9645C17.3192 21.7927 16.405 21.3158 15.8425 20.691C15.6197 20.4487 15.19 19.812 15.2177 19.7692C15.2297 19.7535 15.3272 19.6912 15.4367 19.6283L16.3277 19.1122L17.0192 18.7103L17.164 18.9247C17.3672 19.233 17.8082 19.6552 18.0745 19.7955C18.8402 20.202 19.891 20.1435 20.4107 19.6785C20.6215 19.503 20.7392 19.233 20.7235 18.96C20.7235 18.6825 20.6882 18.558 20.5435 18.3503C20.356 18.0847 19.9772 17.8582 18.895 17.3895C17.6567 16.854 17.1212 16.5263 16.6375 15.999C16.333 15.652 16.1077 15.2427 15.9775 14.7997C15.8875 14.46 15.8642 13.608 15.9347 13.2682C16.189 12.069 17.095 11.2372 18.3955 10.9913C18.8177 10.9095 19.8017 10.9402 20.2157 11.0422L20.215 11.043ZM14.5825 12.0472L14.59 13.0275H11.4647V21.9067H9.25374V13.0275H6.13299V12.0668C6.13299 11.5313 6.14499 11.0865 6.15999 11.0745C6.17199 11.0588 8.07024 11.0512 10.375 11.055L14.5705 11.067L14.5825 12.0472Z" fill="black"/>
</g>
<defs>
<clipPath id="clip0">
<rect width="24" height="24" fill="white" transform="translate(0.875488)"/>
</clipPath>
</defs>
</svg>
