<svg width="22" height="24" viewBox="0 0 22 24" fill="none" xmlns="http://www.w3.org/2000/svg">
<path d="M21.928 5.82225L11.3729 0L0.875488 5.85248L0.892738 18.1269L11.3738 24L21.9453 18.0991L21.928 5.82225ZM16.6879 14.3765L16.6811 9.51141L11.9136 12.2403L11.9364 17.6996L16.0956 15.3866L20.1743 17.7465L11.9558 22.334L11.9364 17.6996L11.3733 18.0127L10.7652 17.6707L10.7847 22.3275L2.6581 17.7738L6.7313 15.4018L10.7652 17.6707L10.7424 12.1907L6.13285 9.59859L6.1396 14.3912L2.06185 16.7659L2.04858 7.30186L6.13285 9.59859L6.72469 8.58792L2.56725 6.25003L10.7888 1.66641V6.31359L6.72469 8.58792L11.3718 11.2012L16.0198 8.54067L11.9599 6.30952V1.6612L20.1479 6.17766L16.0198 8.54067L16.6811 9.51141L20.7589 7.17722L20.7723 16.7396L16.6879 14.3765Z" fill="black"/>
</svg>
